<?xml version="1.0" encoding="UTF-8"?>
<!DOCTYPE svg PUBLIC "-//W3C//DTD SVG 1.1//EN" "http://www.w3.org/Graphics/SVG/1.1/DTD/svg11.dtd">
<svg xmlns="http://www.w3.org/2000/svg" version="1.1" width="609px" height="605px" style="shape-rendering:geometricPrecision; text-rendering:geometricPrecision; image-rendering:optimizeQuality; fill-rule:evenodd; clip-rule:evenodd" xmlns:xlink="http://www.w3.org/1999/xlink">
<g><path style="opacity:1" fill="#535253" d="M 11.5,9.5 C 207.5,9.33333 403.5,9.5 599.5,10C 475.409,170.847 351.075,331.514 226.5,492C 298.499,492.5 370.499,492.667 442.5,492.5C 442.5,527.5 442.5,562.5 442.5,597.5C 298.833,597.667 155.166,597.5 11.5,597C 136.167,436.333 260.833,275.667 385.5,115C 260.834,114.5 136.167,114.333 11.5,114.5C 11.5,79.5 11.5,44.5 11.5,9.5 Z"/></g>
<g><path style="opacity:1" fill="#669ef7" d="M 598.5,493.5 C 598.5,493.833 598.5,494.167 598.5,494.5C 563.76,494.174 529.094,494.507 494.5,495.5C 528.817,493.507 563.484,492.84 598.5,493.5 Z"/></g>
<g><path style="opacity:1" fill="#5b97f6" d="M 598.5,494.5 C 598.5,528.833 598.5,563.167 598.5,597.5C 563.833,597.5 529.167,597.5 494.5,597.5C 494.5,563.5 494.5,529.5 494.5,495.5C 529.094,494.507 563.76,494.174 598.5,494.5 Z"/></g>
<g><path style="opacity:1" fill="#698bed" d="M 598.5,493.5 C 599.498,528.329 599.832,563.329 599.5,598.5C 564.329,598.832 529.329,598.498 494.5,597.5C 529.167,597.5 563.833,597.5 598.5,597.5C 598.5,563.167 598.5,528.833 598.5,494.5C 598.5,494.167 598.5,493.833 598.5,493.5 Z"/></g>
</svg>
