<?xml version="1.0" encoding="UTF-8"?>
<!DOCTYPE svg PUBLIC "-//W3C//DTD SVG 1.1//EN" "http://www.w3.org/Graphics/SVG/1.1/DTD/svg11.dtd">
<svg xmlns="http://www.w3.org/2000/svg" version="1.1" width="1172px" height="513px" style="shape-rendering:geometricPrecision; text-rendering:geometricPrecision; image-rendering:optimizeQuality; fill-rule:evenodd; clip-rule:evenodd" xmlns:xlink="http://www.w3.org/1999/xlink">
<g><path style="opacity:0.995" fill="#b7bbc0" d="M 44.5,36.5 C 191.502,36.1667 338.502,36.5 485.5,37.5C 393.216,157.785 300.549,277.785 207.5,397.5C 261.163,398.5 314.829,398.833 368.5,398.5C 368.5,425.167 368.5,451.833 368.5,478.5C 260.498,478.833 152.498,478.5 44.5,477.5C 136.807,356.879 229.807,236.879 323.5,117.5C 230.502,116.5 137.502,116.167 44.5,116.5C 44.5,89.8333 44.5,63.1667 44.5,36.5 Z"/></g>
<g><path style="opacity:0.994" fill="#5b97f6" d="M 612.5,176.5 C 635.546,175.965 645.046,186.965 641,209.5C 638.737,216.097 634.237,220.264 627.5,222C 618.402,224.183 609.402,223.85 600.5,221C 594.508,218.341 590.675,213.841 589,207.5C 586.206,188.822 594.039,178.489 612.5,176.5 Z"/></g>
<g><path style="opacity:0.996" fill="#5b97f6" d="M 460.5,192.5 C 483.075,192.173 505.575,192.506 528,193.5C 545.478,254.765 562.645,316.098 579.5,377.5C 564.833,377.5 550.167,377.5 535.5,377.5C 531.659,362.47 527.659,347.47 523.5,332.5C 503.602,331.175 483.768,331.175 464,332.5C 459.692,347.397 455.859,362.397 452.5,377.5C 437.833,377.5 423.167,377.5 408.5,377.5C 425.427,315.718 442.761,254.051 460.5,192.5 Z M 493.5,221.5 C 500.328,245.335 506.995,269.335 513.5,293.5C 500.517,294.499 487.517,294.832 474.5,294.5C 480.368,270.029 486.701,245.695 493.5,221.5 Z"/></g>
<g><path style="opacity:0.996" fill="#5b97f6" d="M 733.5,238.5 C 750.024,236.719 763.19,242.386 773,255.5C 789.716,238.556 809.216,234.389 831.5,243C 845.224,251.6 852.39,264.1 853,280.5C 853.5,312.832 853.667,345.165 853.5,377.5C 838.833,377.5 824.167,377.5 809.5,377.5C 809.667,348.498 809.5,319.498 809,290.5C 808.557,281.89 804.057,277.556 795.5,277.5C 788.907,277.137 783.574,279.47 779.5,284.5C 780.492,315.456 780.826,346.456 780.5,377.5C 765.833,377.5 751.167,377.5 736.5,377.5C 736.667,347.498 736.5,317.498 736,287.5C 734.662,280.326 730.329,276.993 723,277.5C 716.204,277.231 710.871,279.898 707,285.5C 706.5,316.165 706.333,346.832 706.5,377.5C 691.833,377.5 677.167,377.5 662.5,377.5C 662.5,331.833 662.5,286.167 662.5,240.5C 674.833,240.5 687.167,240.5 699.5,240.5C 699.614,245.638 700.947,250.305 703.5,254.5C 711.891,245.974 721.891,240.64 733.5,238.5 Z"/></g>
<g><path style="opacity:0.996" fill="#5b97f6" d="M 925.5,238.5 C 965.435,236.597 987.269,255.597 991,295.5C 991.5,304.16 991.666,312.827 991.5,321.5C 966.833,321.5 942.167,321.5 917.5,321.5C 916.585,333.52 921.919,341.02 933.5,344C 950.349,346.519 967.016,345.685 983.5,341.5C 984.833,352.833 984.833,364.167 983.5,375.5C 959.124,380.999 934.791,380.832 910.5,375C 889.644,367.462 877.477,352.629 874,330.5C 870.743,310.364 872.41,290.697 879,271.5C 888.574,252.085 904.074,241.085 925.5,238.5 Z M 930.5,266.5 C 940.535,265.583 946.702,269.916 949,279.5C 950.131,285.112 950.631,290.779 950.5,296.5C 939.167,296.5 927.833,296.5 916.5,296.5C 916.923,290.118 917.756,283.785 919,277.5C 920.806,271.523 924.64,267.856 930.5,266.5 Z"/></g>
<g><path style="opacity:0.995" fill="#5b97f6" d="M 1044.5,238.5 C 1060.86,237.378 1076.86,239.212 1092.5,244C 1103.48,248.983 1110.98,257.15 1115,268.5C 1116.48,273.406 1117.48,278.406 1118,283.5C 1118.5,314.832 1118.67,346.165 1118.5,377.5C 1106.5,377.5 1094.5,377.5 1082.5,377.5C 1082.22,372.333 1080.72,367.667 1078,363.5C 1072.33,371.816 1064.5,376.982 1054.5,379C 1015.83,381.664 999.33,363.831 1005,325.5C 1007.9,315.936 1013.73,308.77 1022.5,304C 1039.49,297.262 1057.16,294.095 1075.5,294.5C 1076.49,285.639 1073.15,279.139 1065.5,275C 1048.63,271.424 1031.96,272.258 1015.5,277.5C 1014.5,266.186 1014.17,254.853 1014.5,243.5C 1024.56,241.379 1034.56,239.713 1044.5,238.5 Z M 1074.5,318.5 C 1075.66,326.656 1075.82,334.99 1075,343.5C 1067.68,348.943 1059.84,349.777 1051.5,346C 1044.6,338.045 1044.94,330.378 1052.5,323C 1059.76,320.52 1067.09,319.02 1074.5,318.5 Z"/></g>
<g><path style="opacity:0.994" fill="#5b97f6" d="M 593.5,240.5 C 608.167,240.5 622.833,240.5 637.5,240.5C 637.5,286.167 637.5,331.833 637.5,377.5C 622.833,377.5 608.167,377.5 593.5,377.5C 593.5,331.833 593.5,286.167 593.5,240.5 Z"/></g>
<g><path style="opacity:0.999" fill="#5b97f6" d="M 484.5,400.5 C 484.5,426.167 484.5,451.833 484.5,477.5C 458.833,477.5 433.167,477.5 407.5,477.5C 407.5,451.833 407.5,426.167 407.5,400.5C 433.167,400.5 458.833,400.5 484.5,400.5 Z"/></g>
<g><path style="opacity:0.945" fill="#6191f2" d="M 484.5,400.5 C 485.498,426.328 485.831,452.328 485.5,478.5C 459.328,478.831 433.328,478.498 407.5,477.5C 433.167,477.5 458.833,477.5 484.5,477.5C 484.5,451.833 484.5,426.167 484.5,400.5 Z"/></g>
</svg>
